<?xml version="1.0" encoding="utf-8"?>
<!-- Generator: Adobe Illustrator 21.0.2, SVG Export Plug-In . SVG Version: 6.00 Build 0)  -->
<svg version="1.1" id="Capa_1" xmlns="http://www.w3.org/2000/svg" xmlns:xlink="http://www.w3.org/1999/xlink" x="0px" y="0px"
	 viewBox="0 0 60 60" style="enable-background:new 0 0 60 60;" xml:space="preserve">
<style type="text/css">
	.st0{fill:#FFFFFF;}
</style>
<g>
	<path class="st0" d="M56,43.8c-0.4-4.1-3.9-7.3-8-7.3c-2.6,0-5,1.3-6.5,3.4c-0.3-0.1-0.6-0.1-0.9-0.1c-2.3,0-4.4,1.6-5.1,3.8
		c-1.9,1.1-3.1,3.2-3.1,5.5c0,3.5,2.8,6.4,6.2,6.4h10.8c0.1,0,0.1,0,0.2,0c0.1,0,0.1,0,0.2,0h4.3c3.2,0,5.8-2.7,5.8-6
		C60,46.9,58.4,44.6,56,43.8z M54.2,53.5l-4.4,0l-0.2,0l-10.9,0c-2.3,0-4.2-2-4.2-4.4c0-1.7,0.9-3.2,2.4-3.9l0.4-0.2l0.1-0.5
		c0.3-1.6,1.7-2.7,3.2-2.7c0.3,0,0.7,0.1,1,0.2l0.8,0.3l0.4-0.7c1.1-1.9,3-3,5.2-3c3.3,0,6,2.7,6,6.1l0,0.8l0.8,0.2
		c1.8,0.4,3.1,2,3.1,3.9C58,51.7,56.3,53.5,54.2,53.5z"/>
	<path class="st0" d="M21.6,18.1c0-3.1-2.5-5.6-5.6-5.6s-5.6,2.5-5.6,5.6c0,3.1,2.5,5.6,5.6,5.6S21.6,21.1,21.6,18.1z M12.4,18.1
		c0-2,1.6-3.6,3.6-3.6s3.6,1.6,3.6,3.6S18,21.6,16,21.6S12.4,20,12.4,18.1z"/>
	<path class="st0" d="M51.3,31.2c0.4,0.4,1,0.3,1.4-0.1c0.4-0.4,0.3-1-0.1-1.4l-12-11c-0.2-0.2-0.5-0.3-0.7-0.3
		c-0.3,0-0.5,0.1-0.7,0.3l-9.8,10.7l-4.7-4.7c-0.4-0.4-1-0.4-1.4,0l-17,15c-0.4,0.4-0.5,1-0.1,1.4c0.2,0.2,0.5,0.3,0.8,0.3
		c0.2,0,0.5-0.1,0.7-0.2L24,26.9l10.3,10.3c0.4,0.4,1,0.4,1.4,0s0.4-1,0-1.4L30.9,31l9.2-10.1L51.3,31.2z"/>
	<path class="st0" d="M27,48.5H2v-42h54v29c0,0.6,0.4,1,1,1s1-0.4,1-1v-30c0-0.6-0.4-1-1-1H1c-0.6,0-1,0.4-1,1v44c0,0.6,0.4,1,1,1
		h26c0.6,0,1-0.4,1-1S27.6,48.5,27,48.5z"/>
</g>
</svg>
